PathFileType	4	(X/Y/Z)	C:\Users\WrightLab\Desktop\Jo\P2_Trial34.trc
DataRate	CameraRate	NumFrames	NumMarkers	Units	OrigDataRate	OrigDataStartFrame	OrigNumFrames
100.00	100.00	       9	19	mm	100.00	332	       663
Frame#	Time	Headset_Front			Headset_Back			Headset_Left			Headset_Right			Left_Shoulder			Right_Shoulder			Sternum			C7			Left Elbow			Right Elbow			Left Wrist			Right Wrist			Left ASIS			Right ASIS			S2			Left Knee			Right Knee			Left Ankle			Right Ankle			
		X1	Y1	Z1	X2	Y2	Z2	X3	Y3	Z3	X4	Y4	Z4	X5	Y5	Z5	X6	Y6	Z6	X7	Y7	Z7	X8	Y8	Z8	X9	Y9	Z9	X10	Y10	Z10	X11	Y11	Z11	X12	Y12	Z12	X13	Y13	Z13	X14	Y14	Z14	X15	Y15	Z15	X16	Y16	Z16	X17	Y17	Z17	X18	Y18	Z18	X19	Y19	Z19	

332	3.310	-370.30426	1458.93127	480.81458	-460.49982	1699.73499	311.89792	-330.12549	1584.23901	317.01947	-491.38419	1548.41211	479.77075	-355.82047	1457.75549	207.95921	-636.92572	1447.64185	370.46625	-463.11679	1332.71143	345.87900	-558.14581	1438.99597	200.96469	-218.97794	1124.53699	193.83958	-715.40662	1121.14038	407.76743	-162.40215	909.09094	254.41783	-675.33795	904.69373	513.01477	-390.23190	1031.01892	345.93356	-511.22873	1008.69312	408.05676	-552.18842	951.83179	137.48181	-395.22684	457.77487	159.07063	-562.72125	604.58868	503.66870	-494.88507	111.28963	136.85234	-613.33087	216.54117	481.65906	
333	3.320	-366.59421	1457.84192	490.80911	-454.41507	1698.84399	322.38055	-324.61667	1583.56482	327.91611	-486.42044	1546.81372	489.30969	-350.33145	1456.58350	217.62112	-631.88904	1446.30652	379.61130	-458.51743	1331.69128	355.46527	-553.43140	1439.02588	210.50085	-211.65852	1125.21741	205.71805	-711.79498	1119.90259	414.81174	-152.85970	910.76331	270.10611	-672.75848	903.09088	519.03644	-386.74857	1030.58643	353.61087	-506.65411	1007.63416	416.75491	-548.29333	951.04095	146.13060	-393.73499	457.49573	162.40337	-556.95129	604.10272	511.52902				-601.52899	207.93015	508.06253	
334	3.330	-361.30734	1456.13989	497.98721	-449.03412	1697.41907	332.52814	-319.62204	1581.97949	339.47940	-482.04898	1545.43506	499.36267	-344.86057	1455.66101	226.69858	-626.50378	1445.12695	389.28772	-452.78369	1329.71045	364.47769	-547.63574	1437.71667	219.78571	-204.43661	1125.65308	218.06776	-706.96820	1118.06873	421.92813	-144.68434	910.84375	284.03705	-669.99664	900.26776	524.43512	-381.58975	1029.28333	361.49823	-501.65314	1006.12848	425.35049	-544.75378	950.36182	155.42493	-392.85016	457.51993	166.05553	-551.31268	603.03113	519.42505				-590.19812	200.01431	535.70782	
335	3.340	-356.47815	1453.55298	509.48279	-443.86877	1695.98853	342.76483	-314.20862	1580.07800	347.96902	-476.95963	1543.98120	508.62439	-339.94821	1454.94543	236.98860	-621.39862	1443.99683	398.79227	-447.60510	1328.45081	373.55634	-542.56812	1437.18274	229.20473	-196.96516	1125.36182	230.86929	-703.59985	1117.46875	429.39114	-136.16714	911.53558	298.97287	-667.29413	897.84106	530.21710	-376.98157	1028.08936	370.74643	-496.12762	1005.09302	434.56171	-540.59552	949.39215	165.05557	-391.81110	457.15182	169.75783	-545.81281	599.90942	527.30676	-493.73822	113.37262	135.74301	-578.56818	190.87592	562.76141	
336	3.350	-352.29395	1453.21802	522.34735	-437.38699	1694.84375	353.18109	-308.72290	1578.85413	359.14691	-472.88043	1542.05835	518.78522	-334.34683	1453.48193	246.49765	-616.15857	1442.47046	408.14410	-443.08936	1326.88770	382.63364	-537.41321	1436.51819	239.00471	-189.79131	1125.13000	243.35490	-699.75928	1115.77002	436.85544	-128.17308	912.61090	311.49020	-665.72382	895.63464	535.87189	-371.60696	1026.55933	378.12433	-490.77859	1003.95642	443.89832	-536.41333	948.55109	174.99353	-390.21286	456.69385	173.86401	-541.17975	596.46454	535.48248	-493.60474	112.55771	136.80081	-563.76031	182.13794	589.12201	
337	3.360	-347.28931	1449.86426	528.69354	-431.96857	1693.33130	363.32196	-303.64279	1576.84082	368.57510	-468.33853	1540.51953	528.48444	-328.96161	1452.27393	256.35507	-610.94177	1441.25391	418.14612	-437.28006	1325.33740	391.70657	-532.05011	1435.42151	248.48424	-183.58711	1124.81445	255.38817	-696.49451	1114.50916	444.44250	-119.21911	913.88953	326.72937	-663.90918	892.96283	542.90643	-366.23865	1025.76025	386.79849	-485.69260	1003.25085	453.80716	-532.15216	947.19946	184.73499	-388.02011	456.26340	177.21935	-537.10504	592.21124	542.27478	-493.05807	112.42625	137.20097	-548.92474	172.62386	616.88971	
338	3.370	-343.98285	1447.88782	539.52222	-427.83591	1692.14758	374.16373	-298.51276	1575.59082	379.56302	-463.97482	1538.48328	538.17535	-323.83499	1450.81458	266.50247	-605.48505	1439.58240	427.71704	-431.78870	1323.65479	401.44281	-526.63385	1434.09314	257.81122	-175.83420	1125.41150	268.43365	-692.78607	1113.04041	452.22357	-112.09384	913.48810	338.77908	-662.34668	890.07001	548.30676	-360.72232	1024.60352	396.97845	-479.33505	1001.92407	463.57935	-527.70337	945.86548	194.86919	-386.59448	456.67764	181.29166	-532.08771	585.45435	547.69482	-491.98187	112.54929	138.97328	-531.90503	164.75214	642.64191	
339	3.380	-338.87161	1445.82617	550.32452	-421.27911	1690.08936	384.08817	-292.99802	1573.37695	390.86118	-458.96765	1536.64148	547.77234	-318.72141	1449.46362	276.10629	-600.41003	1438.18750	437.77295	-426.96698	1321.83655	411.09695	-521.46820	1433.04163	267.61969	-168.87445	1125.15771	280.14417	-689.84943	1111.97339	460.29510	-104.86385	913.12164	352.90741	-660.88062	887.25812	554.06323	-354.58792	1023.64862	406.83920	-473.07587	1000.57086	473.37439	-523.33105	944.35284	205.12503	-384.78827	456.72357	186.97069	-528.69373	579.35223	552.78925	-490.64914	113.43661	139.53929	-514.73712	158.54611	668.38788	
340	3.390	-333.80502	1443.61438	561.64935	-416.09393	1688.66370	394.70554	-287.76227	1571.81750	400.06128	-454.16101	1534.08386	557.80475	-313.63898	1448.18542	285.13623	-595.10425	1436.43164	447.38904	-421.37277	1320.69592	420.09781	-516.06818	1431.48413	276.87451	-162.31308	1124.60059	291.79492	-686.59595	1110.32544	467.94159	-97.43705	912.86853	364.14990	-660.00482	884.57990	559.97089	-348.78720	1022.58667	415.90536	-466.59821	999.45758	482.84198	-518.46826	942.20825	215.92464	-382.92365	454.95920	193.33179	-525.67889	572.47400	557.63110	-489.20728	113.48087	141.63712	-496.84644	157.27306	693.78485	
